PathFileType	4	(X/Y/Z)	output.trc
DataRate	CameraRate	NumFrames	NumMarkers	Units	OrigDataRate	OrigDataStartFrame	OrigNumFrames
128	128	9	47	mm	128	626	1000
Frame#	Time	C7			LSHO			RSHO			CLAV			T10			LUPA			RELB			LELB			LFRA			RFRA			RWRB			RWRA			RFIN			LWRB			LWRA			LFIN			RASI			LASI			RPSI			LPSI			RANK			LANK			LMMA			LHEE			LTOE			RMMA			RHEE			RTOE			RMT5			LMT5			RKNE			LKNE			LMFC			RMFC			RFM2			LFM2			RTP2			RTP3			RTA3			LTP2			LTP3			LTA3			LBHD			RBHD			RFHD			RGTR			LGTR			
		X1	Y1	Z1	X2	Y2	Z2	X3	Y3	Z3	X4	Y4	Z4	X5	Y5	Z5	X6	Y6	Z6	X7	Y7	Z7	X8	Y8	Z8	X9	Y9	Z9	X10	Y10	Z10	X11	Y11	Z11	X12	Y12	Z12	X13	Y13	Z13	X14	Y14	Z14	X15	Y15	Z15	X16	Y16	Z16	X17	Y17	Z17	X18	Y18	Z18	X19	Y19	Z19	X20	Y20	Z20	X21	Y21	Z21	X22	Y22	Z22	X23	Y23	Z23	X24	Y24	Z24	X25	Y25	Z25	X26	Y26	Z26	X27	Y27	Z27	X28	Y28	Z28	X29	Y29	Z29	X30	Y30	Z30	X31	Y31	Z31	X32	Y32	Z32	X33	Y33	Z33	X34	Y34	Z34	X35	Y35	Z35	X36	Y36	Z36	X37	Y37	Z37	X38	Y38	Z38	X39	Y39	Z39	X40	Y40	Z40	X41	Y41	Z41	X42	Y42	Z42	X43	Y43	Z43	X44	Y44	Z44	X45	Y45	Z45	X46	Y46	Z46	X47	Y47	Z47	

626	4.88281	1441.66382	1434.05925	1414.07792	1292.93394	1297.90746	1298.43963	1063.49206	1072.65459	945.56585	922.96981	763.40545	775.29868	682.03660	786.01478	788.39649	684.31836	1002.55702	1007.49188	1171.60343	1175.31565	65.37573	67.29882	80.41404	26.91040	38.57074	52.46312	23.31514	35.22290	25.90852	25.12642	505.04980	512.41329	514.35269	522.97444	596.50863	641.43983	275.39345	326.79543	301.90231	292.26122	355.87220	311.61521	1329.93367	1729.93367	1359.93367	1329.93367	1729.93367	1499.93367	1529.93367	1729.93367	1499.93367	763.40545	786.01478	
627	4.89062	1440.75448	1433.10422	1413.31592	1291.95497	1297.76830	1297.58810	1063.19996	1071.92444	944.78491	922.60031	763.01230	774.96221	681.62161	785.16302	787.59265	683.45629	1002.40502	1007.29664	1171.67355	1175.44037	65.33268	67.33128	80.42553	26.91037	38.53931	52.45809	23.33858	35.20698	25.93067	25.11214	504.99771	512.39903	514.31966	523.00697	596.49802	641.41522	275.40167	326.78165	301.88478	292.21254	355.87021	311.58127	1329.05821	1729.05821	1359.05821	1329.05821	1729.05821	1499.05821	1529.05821	1729.05821	1499.05821	763.01230	785.16302	
628	4.89844	1439.82514	1432.26029	1412.35803	1290.84624	1297.63579	1296.69105	1062.85013	1071.19707	944.05082	922.19950	762.64916	774.55644	681.20313	784.34719	786.85206	682.68266	1002.27087	1007.16249	1171.73059	1175.57309	65.38555	67.29342	80.43184	26.93404	38.56644	52.46164	23.31831	35.14626	25.91279	25.11937	505.03415	512.34979	514.33657	522.99678	596.54627	641.38657	275.39541	326.76831	301.89024	292.23902	355.82806	311.56815	1328.14782	1728.14782	1358.14782	1328.14782	1728.14782	1498.14782	1528.14782	1728.14782	1498.14782	762.64916	784.34719	
629	4.90625	1438.97084	1431.43995	1411.56831	1289.91315	1297.48084	1295.86799	1062.48743	1070.49047	943.33855	921.83797	762.25377	774.18316	680.83561	783.58242	786.08106	681.94699	1002.16180	1007.05878	1171.82235	1175.63829	65.33794	67.30588	80.42314	26.92360	38.55121	52.45863	23.33800	35.19824	25.94247	25.17562	505.04320	512.33058	514.31915	523.01535	596.58034	641.39740	275.37996	326.79954	301.84579	292.25561	355.85824	311.58914	1327.32637	1727.32637	1357.32637	1327.32637	1727.32637	1497.32637	1527.32637	1727.32637	1497.32637	762.25377	783.58242	
630	4.91406	1438.00157	1430.74244	1410.85152	1288.91017	1297.37173	1295.00008	1062.07959	1069.76739	942.43900	921.43888	761.83812	773.82021	680.48475	782.86622	785.35374	681.23413	1002.02300	1006.92533	1171.93213	1175.71114	65.39520	67.32740	80.43807	26.92374	38.52924	52.43930	23.30072	35.20654	25.87635	25.17640	505.04440	512.33540	514.33265	523.01751	596.59665	641.40024	275.40339	326.77630	301.91305	292.27886	355.87350	311.61838	1326.53184	1726.53184	1356.53184	1326.53184	1726.53184	1496.53184	1526.53184	1726.53184	1496.53184	761.83812	782.86622	
631	4.92188	1437.07716	1429.87446	1410.03222	1287.84759	1297.23075	1294.17724	1061.72341	1069.06369	941.66257	921.04609	761.39367	773.32609	679.98726	782.11363	784.66800	680.55066	1001.89524	1006.80293	1172.00584	1175.83700	65.41114	67.33717	80.41337	26.92388	38.57429	52.50297	23.31939	35.17223	25.90798	25.17750	505.07333	512.33558	514.32355	522.98936	596.56698	641.39204	275.36946	326.78054	301.88150	292.28218	355.88192	311.58598	1325.66128	1725.66128	1355.66128	1325.66128	1725.66128	1495.66128	1525.66128	1725.66128	1495.66128	761.39367	782.11363	
632	4.92969	1436.15847	1429.09137	1409.21213	1286.81763	1297.07168	1293.29278	1061.24390	1068.42223	940.97953	920.51796	760.97826	772.87852	679.56275	781.40380	783.96791	679.85664	1001.73608	1006.64912	1172.05344	1175.94619	65.43655	67.35836	80.43756	26.84007	38.56348	52.47532	23.28358	35.16636	25.88780	25.16335	505.03919	512.27907	514.30697	522.96904	596.61495	641.33254	275.34251	326.78532	301.87888	292.29346	355.87712	311.56346	1324.82066	1724.82066	1354.82066	1324.82066	1724.82066	1494.82066	1524.82066	1724.82066	1494.82066	760.97826	781.40380	
633	4.93750	1435.24960	1428.20725	1408.33164	1285.77841	1296.94290	1292.42393	1060.81005	1067.77721	940.24941	920.05209	760.50243	772.32439	679.02957	780.66804	783.31871	679.21861	1001.58256	1006.50095	1172.11877	1176.05993	65.44256	67.35347	80.41981	26.84428	38.54209	52.48991	23.32419	35.16593	25.91461	25.16139	505.01066	512.25765	514.29146	522.98789	596.55075	641.30271	275.35322	326.75772	301.87237	292.27994	355.84423	311.59397	1323.92950	1723.92950	1353.92950	1323.92950	1723.92950	1493.92950	1523.92950	1723.92950	1493.92950	760.50243	780.66804	
634	4.94531	1434.33509	1427.38673	1407.55938	1284.72875	1296.82693	1291.56722	1060.42466	1067.10670	939.61185	919.52650	760.01843	771.83934	678.53806	779.97275	782.70122	678.58153	1001.45405	1006.37779	1172.18637	1176.18792	65.43955	67.32962	80.42078	26.95142	38.55870	52.48618	23.32171	35.16464	25.90057	25.15459	505.00567	512.20217	514.31939	523.03057	596.56991	641.28132	275.36513	326.74142	301.86540	292.30620	355.85101	311.60490	1323.09374	1723.09374	1353.09374	1323.09374	1723.09374	1493.09374	1523.09374	1723.09374	1493.09374	760.01843	779.97275	
